<?xml version="1.0" encoding="UTF-8"?>
<!DOCTYPE svg PUBLIC "-//W3C//DTD SVG 1.1//EN" "http://www.w3.org/Graphics/SVG/1.1/DTD/svg11.dtd">
<!-- Creator: CorelDRAW -->
<svg xmlns="http://www.w3.org/2000/svg" xml:space="preserve" width="2550px" height="3300px" style="shape-rendering:geometricPrecision; text-rendering:geometricPrecision; image-rendering:optimizeQuality; fill-rule:evenodd; clip-rule:evenodd"
viewBox="0 0 2550 3300"
 xmlns:xlink="http://www.w3.org/1999/xlink">
 <defs>
  <style type="text/css">
   <![CDATA[
    .str0 {stroke:#1F1A17;stroke-width:0.9}
    .fil0 {fill:none}
    .fil1 {fill:#007CC3;fill-rule:nonzero}
    .fil2 {fill:#FFF500;fill-rule:nonzero}
   ]]>
  </style>
 </defs>
 <g id="Layer_x0020_1">
  <metadata id="CorelCorpID_0Corel-Layer"/>
  <polygon class="fil0 str0" points="320.458,1746.88 2373.61,1746.88 2373.61,2212.65 320.458,2212.65 "/>
  <g id="_94246920">
   <path id="_91739904" class="fil1" d="M452.33 1826.36c22.3004,0 41.4,4.5 57.4004,13.5496 15.9496,9.05079 28.05,21.8504 36.2492,38.5004 8.20039,16.65 12.3,36.1996 12.3,58.6996 0,16.6004 -2.25,31.65 -6.75,45.2504 -4.5,13.5496 -11.1992,25.35 -20.1992,35.2996 -9,9.95079 -20.0504,17.55 -33.1004,22.8508 -13.0996,5.25 -28.0996,7.89921 -45,7.89921 -16.8,0 -31.8496,-2.7 -45.15,-8.14961 -13.2496,-5.4 -24.3496,-13.05 -33.2504,-22.9004 -8.89961,-9.84921 -15.6,-21.75 -20.1496,-35.5996 -4.54961,-13.8496 -6.79961,-28.8496 -6.79961,-44.9504 0,-16.5 2.34921,-31.65 7.09961,-45.3992 4.75039,-13.8 11.5996,-25.5 20.5996,-35.1508 9,-9.69921 19.9004,-17.1 32.8004,-22.2 12.9,-5.14961 27.5504,-7.69961 43.95,-7.69961zm61.8496 110.45c0,-15.75 -2.55,-29.3492 -7.59921,-40.8992 -5.1,-11.5004 -12.3508,-20.25 -21.8008,-26.1508 -9.39921,-5.89961 -20.1992,-8.85 -32.4496,-8.85 -8.7,0 -16.6996,1.65 -24.1004,4.90039 -7.35,3.3 -13.6996,8.05039 -19.05,14.2996 -5.29961,6.25039 -9.49961,14.25 -12.6,23.9504 -3.04961,9.70039 -4.59921,20.6504 -4.59921,32.7496 0,12.2008 1.54961,23.25 4.59921,33.1004 3.10039,9.85039 7.45039,18.0496 13.05,24.5504 5.60079,6.49961 12.0508,11.3492 19.35,14.55 7.25079,3.24921 15.2504,4.84961 23.9504,4.84961 11.1496,0 21.3496,-2.80039 30.7004,-8.35039 9.34961,-5.55 16.7492,-14.1496 22.2496,-25.8 5.55,-11.5996 8.29961,-25.8992 8.29961,-42.9zm238.511 -28.5496l0 4.8c7.5,-9.25039 15.3496,-16.0996 23.4496,-20.4496 8.1,-4.35 17.2996,-6.50079 27.5504,-6.50079 12.3,0 23.6492,3.15 33.9992,9.50079 10.35,6.34961 18.5504,15.6496 24.5504,27.8492 6,12.2008 9,26.6504 9,43.35 0,12.3 -1.75039,23.6008 -5.20039,33.9 -3.45,10.3004 -8.25,18.9508 -14.2996,25.95 -6.04961,7.00039 -13.2,12.3508 -21.45,16.1008 -8.25,3.75 -17.1496,5.64921 -26.5996,5.64921 -11.4508,0 -21.0508,-2.29961 -28.8,-6.9 -7.75039,-4.54961 -15.15,-11.2996 -22.2,-20.1992l0 60.0992c0,17.55 -6.40039,26.3504 -19.2,26.3504 -7.5,0 -12.5008,-2.25 -14.9504,-6.79961 -2.44961,-4.55079 -3.64961,-11.1508 -3.64961,-19.8508l0 -172.599c0,-7.60039 1.65,-13.3004 4.99961,-17.0504 3.3,-3.75 7.84961,-5.65039 13.6004,-5.65039 5.64921,0 10.2992,1.95 13.8496,5.80039 3.55039,3.85039 5.35039,9.40039 5.35039,16.65zm78.3992 58.1504c0,-10.5508 -1.59921,-19.6004 -4.84961,-27.2008 -3.19961,-7.54961 -7.69961,-13.35 -13.3996,-17.4 -5.7,-4.05 -12.0508,-6.09921 -18.9508,-6.09921 -11.0492,0 -20.3492,4.35 -27.9496,13.05 -7.54961,8.7 -11.3504,21.45 -11.3504,38.3492 0,15.9508 3.75,28.3004 11.3008,37.1504 7.5,8.85 16.8496,13.2496 27.9992,13.2496 6.6,0 12.8008,-1.95 18.45,-5.79921 5.65039,-3.85039 10.2,-9.65079 13.6004,-17.3504 3.45,-7.69961 5.14961,-17.0504 5.14961,-27.9496zm306.911 10.5l-78.2008 0c0.100394,9.09921 1.95,17.1 5.50039,24.0496 3.55039,6.94961 8.29961,12.15 14.2004,15.6496 5.89961,3.55039 12.45,5.30079 19.5496,5.30079 4.8,0 9.15,-0.550394 13.0996,-1.70079 3.95079,-1.09961 7.8,-2.85 11.5004,-5.25 3.75,-2.4 7.15039,-4.95 10.2496,-7.69961 3.15,-2.74961 7.2,-6.45 12.2008,-11.1496 2.04921,-1.75039 4.95,-2.65039 8.74961,-2.65039 4.09961,0 7.45039,1.15039 10.0004,3.40039 2.49921,2.25 3.79961,5.4 3.79961,9.49961 0,3.6 -1.45039,7.84961 -4.24961,12.7004 -2.85,4.8 -7.10079,9.45 -12.8504,13.8992 -5.7,4.45039 -12.8504,8.15079 -21.4996,11.0504 -8.65039,2.95039 -18.6,4.39961 -29.8004,4.39961 -25.6996,0 -45.7004,-7.29921 -59.9504,-21.9496 -14.25,-14.6504 -21.3992,-34.5496 -21.3992,-59.6504 0,-11.7992 1.74921,-22.8 5.29961,-32.8996 3.49961,-10.0996 8.65039,-18.75 15.3496,-25.9996 6.75,-7.2 15.0508,-12.75 24.9508,-16.6004 9.84921,-3.85039 20.7992,-5.80039 32.7992,-5.80039 15.6508,0 29.0504,3.3 40.2,9.9 11.2004,6.6 19.5508,15.1004 25.1504,25.5508 5.55,10.4492 8.35039,21.0992 8.35039,31.95 0,10.05 -2.90079,16.5496 -8.65039,19.5496 -5.74961,2.95039 -13.9004,4.45039 -24.3496,4.45039zm-78.2008 -22.7008l72.5008 0c-0.950787,-13.65 -4.65,-23.8996 -11.0504,-30.6496 -6.40039,-6.79961 -14.8004,-10.2 -25.2496,-10.2 -10.0004,0 -18.15,3.45 -24.5504,10.3004 -6.40039,6.9 -10.3004,17.1 -11.6504,30.5492zm304.31 -46.2992l0 4.84961c7.05,-9.3 14.7496,-16.0996 23.0504,-20.4496 8.34921,-4.35 17.9492,-6.50079 28.8,-6.50079 10.5496,0 19.95,2.30079 28.2496,6.9 8.29961,4.55079 14.5004,11.0504 18.6,19.4504 2.65039,4.90039 4.35,10.1504 5.14961,15.8504 0.75,5.64921 1.15039,12.8492 1.15039,21.6496l0 74.4496c0,8.00079 -1.84961,14.0504 -5.50039,18.15 -3.64961,4.10079 -8.4,6.15 -14.2996,6.15 -5.95039,0 -10.7504,-2.1 -14.5004,-6.3 -3.69921,-4.2 -5.55,-10.2 -5.55,-18l0 -66.6496c0,-13.2 -1.84961,-23.2996 -5.49921,-30.3 -3.65079,-6.94961 -10.95,-10.4504 -21.8504,-10.4504 -7.15039,0 -13.65,2.1 -19.5,6.35079 -5.85,4.24961 -10.1504,10.0996 -12.8504,17.55 -1.95,5.94921 -2.94921,17.0492 -2.94921,33.3992l0 50.1c0,8.1 -1.90039,14.1508 -5.65039,18.2008 -3.75,4.05 -8.59961,6.09921 -14.55,6.09921 -5.80039,0 -10.5,-2.1 -14.25,-6.3 -3.70039,-4.2 -5.55,-10.2 -5.55,-18l0 -115.599c0,-7.60039 1.65,-13.3004 4.99961,-17.0504 3.3,-3.75 7.85079,-5.65039 13.6004,-5.65039 3.49961,0 6.70039,0.850394 9.55039,2.50039 2.79921,1.65 5.1,4.15039 6.79961,7.45039 1.69961,3.34961 2.55,7.39961 2.55,12.15z"/>
   <path id="_91739976" class="fil2" d="M1798.02 1980.26c0,13.0004 -3.34961,24.7004 -10.05,35.0504 -6.64961,10.35 -16.4504,18.45 -29.3504,24.3 -12.9,5.85 -28.1492,8.79921 -45.8492,8.79921 -21.2008,0 -38.6504,-3.99921 -52.4504,-12 -9.75,-5.79921 -17.7,-13.4492 -23.8004,-23.1 -6.09921,-9.6 -9.15,-18.9496 -9.15,-28.05 0,-5.25 1.85079,-9.79961 5.50039,-13.5496 3.64961,-3.75 8.29961,-5.65039 13.9996,-5.65039 4.60039,0 8.45079,1.5 11.6504,4.40079 3.15,2.94921 5.85,7.29921 8.1,13.05 2.74961,6.84921 5.7,12.5492 8.89961,17.1496 3.15,4.54961 7.65,8.35039 13.4008,11.3504 5.74961,2.94921 13.2992,4.44921 22.6996,4.44921 12.9,0 23.3504,-3 31.3996,-9 8.05039,-6 12.1004,-13.5 12.1004,-22.5 0,-7.09961 -2.14961,-12.9 -6.49961,-17.3492 -4.35,-4.45039 -10.0004,-7.85079 -16.8508,-10.1504 -6.9,-2.35039 -16.0996,-4.84961 -27.6496,-7.5 -15.4004,-3.6 -28.35,-7.84961 -38.7496,-12.6496 -10.4008,-4.85079 -18.6508,-11.4508 -24.75,-19.8 -6.10039,-8.35039 -9.15,-18.7004 -9.15,-31.1008 0,-11.7992 3.19961,-22.2992 9.64961,-31.5 6.45,-9.15 15.7996,-16.2 28.0004,-21.15 12.1996,-4.95 26.55,-7.39961 43.05,-7.39961 13.2,0 24.6,1.65 34.2,4.90039 9.64961,3.3 17.5996,7.59921 23.9492,13.05 6.35079,5.4 11.0008,11.1 13.95,17.0492 2.90079,5.95039 4.40079,11.7508 4.40079,17.4508 0,5.14961 -1.85079,9.79961 -5.50039,13.95 -3.64961,4.14921 -8.25,6.24921 -13.6996,6.24921 -5.00079,0 -8.75079,-1.24961 -11.3504,-3.75 -2.59961,-2.44961 -5.4,-6.54921 -8.4,-12.1996 -3.94961,-8.1 -8.59961,-14.4496 -14.1,-19.0004 -5.44961,-4.54961 -14.25,-6.79961 -26.3504,-6.79961 -11.25,0 -20.2996,2.44961 -27.15,7.39961 -6.9,4.95 -10.35,10.8508 -10.35,17.8004 0,4.30039 1.15039,7.99961 3.50079,11.1 2.34921,3.15 5.59961,5.85 9.69921,8.1 4.10079,2.20039 8.25,4.00039 12.45,5.25 4.2,1.24961 11.1,3.10039 20.8004,5.55 12.1004,2.85 23.0504,5.95039 32.85,9.40039 9.85039,3.39921 18.15,7.54961 25.05,12.45 6.9,4.84961 12.2504,11.0492 16.0996,18.4996 3.85039,7.5 5.80039,16.65 5.80039,27.45zm196.959 10.3996l0 33.45c0,8.1 -1.89921,14.1508 -5.7,18.2008 -3.79961,4.05 -8.64921,6.09921 -14.4992,6.09921 -5.80039,0 -10.5,-2.04921 -14.25,-6.15 -3.70039,-4.09961 -5.55,-10.1492 -5.55,-18.15l0 -111.35c0,-17.9504 6.49961,-26.9504 19.5,-26.9504 6.64961,0 11.4,2.1 14.3492,6.3 2.95039,4.2 4.55079,10.4008 4.85079,18.6 4.74921,-8.19921 9.64961,-14.4 14.7,-18.6 5.04921,-4.2 11.7496,-6.3 20.1496,-6.3 8.4,0 16.5496,2.1 24.45,6.3 7.90039,4.2 11.85,9.75 11.85,16.7008 0,4.84961 -1.65,8.89961 -5.05039,12.0496 -3.34961,3.19961 -6.99921,4.75039 -10.8992,4.75039 -1.45039,0 -5.00079,-0.9 -10.6004,-2.7 -5.65039,-1.8 -10.6004,-2.7 -14.8996,-2.7 -5.85,0 -10.65,1.54961 -14.3504,4.59921 -3.70039,3.10039 -6.6,7.65 -8.65039,13.7008 -2.04921,6.04961 -3.45,13.2496 -4.24961,21.6496 -0.75,8.35039 -1.15039,18.4996 -1.15039,30.4996zm350.51 8.20039c0,4.99961 -1.5,10.3004 -4.5,16.0004 -2.95039,5.64921 -7.5,11.0492 -13.6004,16.2 -6.09921,5.1 -13.8,9.24921 -23.1,12.3496 -9.24921,3.15 -19.6996,4.69961 -31.2992,4.69961 -24.75,0 -44.0008,-7.2 -57.9,-21.6 -13.8508,-14.4 -20.8004,-33.6992 -20.8004,-57.9496 0,-16.3996 3.15,-30.9 9.49961,-43.5 6.35079,-12.6 15.5504,-22.35 27.5504,-29.2004 12.0496,-6.9 26.4,-10.35 43.0996,-10.35 10.35,0 19.8508,1.5 28.5,4.55079 8.60079,3 15.9508,6.9 21.9508,11.7 6,4.8 10.5992,9.9 13.7492,15.3 3.20079,5.44961 4.8,10.5 4.8,15.15 0,4.8 -1.8,8.85 -5.34921,12.1996 -3.6,3.3 -7.90039,4.95 -13.0004,4.95 -3.3,0 -6.04961,-0.850394 -8.25,-2.55 -2.20039,-1.69961 -4.65,-4.5 -7.39961,-8.29961 -4.90039,-7.40079 -10.0004,-12.9508 -15.3,-16.7008 -5.35039,-3.69921 -12.1004,-5.55 -20.3008,-5.55 -11.7992,0 -21.3496,4.60039 -28.5496,13.8508 -7.24961,9.19961 -10.8496,21.8492 -10.8496,37.8496 0,7.54961 0.949606,14.4496 2.79921,20.7496 1.85079,6.3 4.5,11.6504 8.05039,16.1008 3.49961,4.44921 7.75039,7.8 12.75,10.0996 4.95,2.29961 10.4504,3.45 16.3996,3.45 8.00079,0 14.85,-1.84961 20.55,-5.55 5.75079,-3.75 10.8,-9.40039 15.2008,-16.9996 2.4,-4.5 5.04921,-8.00079 7.89921,-10.5508 2.80039,-2.55 6.3,-3.79961 10.4008,-3.79961 4.89921,0 8.94921,1.84961 12.15,5.55 3.19961,3.70039 4.84961,7.65 4.84961,11.85z"/>
  </g>
  <path class="fil0 str0" d="M1346.17 1328.17c606.606,0 1098.54,292.391 1098.54,652.937 0,360.546 -491.937,652.937 -1098.54,652.937 -606.606,0 -1098.54,-292.391 -1098.54,-652.937 0,-360.546 491.937,-652.937 1098.54,-652.937z"/>
 </g>
</svg>
